PathFileType	4	(X/Y/Z)	Patient4_TMGait_0pt4_02_right_03.trc.trc
DataRate	CameraRate	NumFrames	NumMarkers	Units	OrigDataRate	OrigDataStartFrame	OrigNumFrames
73.684210526316	73.684210526316	4	33	mm	73.684210526316	71	       141
Frame#	Time	Sacral			L.Shoulder			Chest			R.Shoulder			Neck			R.ASIS			L.ASIS			R.Thigh.Superior			R.Thigh.Lateral			R.Thigh.Inferior			R.Patella			L.Thigh.Superior			L.Thigh.Lateral			L.Thigh.Inferior			L.Patella			L.Shank.Superior			L.Shank.Lateral			L.Shank.Inferior			R.Shank.Superior			R.Shank.Lateral			R.Shank.Inferior			R.Heel			R.Midfoot.Superior			R.Midfoot.Lateral			R.Toe			L.Heel			L.Midfoot.Lateral			L.Midfoot.Superior			L.Toe			L.Elbow			L.Wrist			R.Elbow			R.Wrist			
		X1	Y1	Z1	X2	Y2	Z2	X3	Y3	Z3	X4	Y4	Z4	X5	Y5	Z5	X6	Y6	Z6	X7	Y7	Z7	X8	Y8	Z8	X9	Y9	Z9	X10	Y10	Z10	X11	Y11	Z11	X12	Y12	Z12	X13	Y13	Z13	X14	Y14	Z14	X15	Y15	Z15	X16	Y16	Z16	X17	Y17	Z17	X18	Y18	Z18	X19	Y19	Z19	X20	Y20	Z20	X21	Y21	Z21	X22	Y22	Z22	X23	Y23	Z23	X24	Y24	Z24	X25	Y25	Z25	X26	Y26	Z26	X27	Y27	Z27	X28	Y28	Z28	X29	Y29	Z29	X30	Y30	Z30	X31	Y31	Z31	X32	Y32	Z32	X33	Y33	Z33	

71	4.210000000000	861.448208985507	1002.298068461898	522.856304717785	1015.023705796271	1431.750974093787	323.681711257369	1140.180892263813	1362.674966142844	467.728201663442	1083.478758658075	1434.304715289262	652.307777797526	1020.031807530610	1491.266403134207	480.688836262611	1100.535250292121	938.175231825594	614.983268816258	1057.631722049820	958.922190869013	342.929887675166	1104.031371280483	727.188475881142	582.495657530053	1009.860633248132	628.765327274312	651.782522430275	1065.133819130225	567.226594730709	565.588016929122	1049.389648164179	482.336228771904	570.109384070786	1134.805190177802	770.570129888947	368.774978323708	1079.841623311657	641.568515458638	294.917632454549	1184.792117349256	582.849987521992	351.651536565814	1208.099349806905	515.978622816429	348.374662588167	1188.019851898261	443.101960532347	339.266200623845	1112.445938624739	317.533746858703	290.906847369342	1194.590169443411	213.064416145278	342.998815188078	1013.809640966890	396.192100642901	579.518289155677	939.109268067888	299.226667858215	649.539859378092	962.489573866086	202.022167448667	579.626130627184	813.812274371441	42.451073155678	562.374814301338	987.725528944520	96.412875288305	581.388159502401	904.008872495245	36.823046827039	628.792835190592	1110.091773065768	43.894171229133	596.901245252193	1099.250467963101	45.526685619188	385.922498968771	1169.945590904271	42.342491758143	303.160560573045	1250.226748091224	109.978406731528	322.080950851965	1378.563153227179	65.494010058052	290.328641894061	904.448045662702	1097.284602411886	216.129609015074	925.580319327054	841.989728159769	162.327832631443	1202.162258278101	1103.713475719045	747.311403147999	1425.468592112231	1073.042989073069	629.086120356941	
72	4.223571428571	863.041834236099	1001.160174590661	519.594076206177	1015.105683291184	1430.908563168340	320.744958883540	1140.213177238845	1362.557838791797	465.150463679569	1082.536329428278	1433.746624786764	649.666006340862	1019.481135815942	1490.517634447090	477.840495854641	1102.145787444844	937.530355118843	612.681237357879	1060.053895415411	957.901870920703	340.653084998230	1105.244700736328	726.200399108618	580.836144733038	1009.917851270973	628.205803137004	649.754849074952	1065.210828090698	566.080030965457	564.114801576182	1048.822119531989	480.820321516263	568.520190313419	1136.375786821910	767.923855066121	367.250682679959	1079.390012392084	639.178137531137	294.939387149471	1183.743144310710	579.915681400584	352.290985426449	1205.444859930799	512.094902984876	349.787527291659	1184.605844423617	439.049718329368	340.557380065317	1107.096750336742	314.380926872414	292.776320170426	1187.328193623057	208.885254547190	345.744506912230	1012.110662410689	395.176686161312	578.126719634849	936.254031042643	299.318689295214	648.498245949627	958.431410787850	201.564179033343	578.981172731167	808.398828265993	42.656299095349	562.392761272897	982.385879595943	96.424332556524	581.392947260722	898.581445004132	36.857346889734	628.756603940871	1104.685999032308	43.527657663949	596.995954945407	1088.851124961292	43.240390561149	388.581007615685	1159.694635719436	39.791857399530	305.887639341150	1241.122884793527	105.584504882027	325.895035159492	1369.047120349741	59.044257219904	294.001872604723	905.360162894315	1095.884192566847	214.145778459163	927.066348865100	840.471326367833	161.008237619181	1200.101309556460	1102.591886016891	745.327775350705	1422.053458780803	1067.955854710177	625.207923312751	
73	4.237142857143	864.611879503623	1000.204625266488	516.353672212160	1015.338760471073	1430.151757760431	317.646371017611	1140.383141821041	1362.508320905587	462.411626614041	1081.778491456893	1433.344617915618	646.852765949422	1019.100033973883	1489.890843808095	474.816197765191	1103.771709025669	936.963525973012	610.131625106716	1062.270435470354	957.095628706356	338.186033910326	1106.634332500802	725.303997551104	578.908514775039	1010.329830844944	627.656476516599	647.502227566874	1065.693779885489	564.988544895131	562.383940025529	1048.772442875417	479.217186065771	566.745511721393	1137.826104721587	765.625257737778	365.525288649816	1078.882377308323	637.250376598794	294.688915976809	1182.682857492173	577.445901499026	352.642443591139	1202.768282441778	508.765017868463	350.933035464043	1181.360414724153	435.576445969280	341.480161309499	1102.278361886183	311.720147425547	294.030655271663	1180.671465138517	205.371494001124	347.967005607810	1010.782206398375	394.156463136156	576.580966475947	933.670276371572	299.533382964613	647.339596195585	954.556840620058	201.189146576663	578.280373630402	803.014486446297	43.083519458836	562.418482333199	977.128521320785	96.460554779256	581.371343183270	893.189581550311	36.969855898071	628.709564782809	1099.325099005554	43.100567378914	597.091998883304	1079.387188104739	41.306925544799	390.541901443045	1150.439621185336	37.883869818241	307.950133090035	1232.713115184906	102.120068727291	329.129349458303	1360.387184006835	54.015970560675	297.159439624615	906.921466724699	1094.427115021989	211.825453100248	929.467289257866	838.900672274966	159.406679975568	1197.464464183298	1101.433946254203	743.615051985266	1418.045510204198	1061.721205046861	622.081535334646	
74	4.250714285714	866.116720453634	999.487825974263	513.180893891212	1015.706460319600	1429.536249339247	314.418635870327	1140.686717363405	1362.554675487886	459.525366855159	1081.251323887818	1433.155846124367	643.877763247878	1018.898167118352	1489.437651058039	471.637523301561	1105.350686516318	936.529717511748	607.339853375279	1064.200426945136	956.563011972541	335.513967834350	1108.137997972368	724.562273784729	576.690613901401	1011.108985293373	627.152530527599	645.043452546557	1066.612629665409	564.002035761974	560.401247607793	1049.317200974564	477.556545479121	564.846261489884	1139.153246779952	763.837306300700	363.553187510948	1078.411149262786	635.889361648401	294.080533427990	1181.693345652207	575.550667367260	352.560142339096	1200.208483845229	506.124895266216	351.643352844079	1178.416291342225	432.799193344497	341.932618833895	1098.132433580012	309.656174299603	294.557256183519	1174.755687352256	202.629388563188	349.568575308741	1009.881284333656	393.166654949630	574.926581848534	931.391032986705	299.920509758434	646.085203638729	950.909247234346	200.948406187034	577.556612034371	797.677903900621	43.832051818442	562.456538907128	971.986682775906	96.519979091161	581.310743865805	887.848936638095	37.204525204921	628.655710883473	1094.020762929955	42.616636790134	597.184505434359	1071.014745274583	39.808377668873	391.823380650500	1142.295557744979	36.602952049333	309.337501762304	1225.131103608776	99.624869242521	331.636752758922	1352.691540792654	50.428450779219	299.636383187545	909.118766666025	1092.984660432396	209.169187485301	932.811397514222	837.354475142271	157.528129036833	1194.266356832556	1100.296293965853	742.091692780346	1413.419866358248	1054.340466082095	619.724601379662	
